<svg xmlns="http://www.w3.org/2000/svg" viewBox="0 0 18 18">
    <defs>
        <style>.a{fill:#666;}</style>
    </defs>
    <path class="a"
          d="M2.77,0V1.38H2.08A2.09,2.09,0,0,0,0,3.46V15.92A2.09,2.09,0,0,0,2.08,18H15.92A2.09,2.09,0,0,0,18,15.92V3.46a2.09,2.09,0,0,0-2.08-2.08h-.69V0H13.85V1.38H4.15V0ZM2.08,2.77h.69V4.15H4.15V2.77h9.7V4.15h1.38V2.77h.69a.69.69,0,0,1,.7.69V5.54H1.38V3.46A.69.69,0,0,1,2.08,2.77Zm-.7,4.15H16.62v9a.7.7,0,0,1-.7.7H2.08a.7.7,0,0,1-.7-.7ZM5.54,8.31V9.69H6.92V8.31Zm2.77,0V9.69H9.69V8.31Zm2.77,0V9.69h1.38V8.31Zm2.77,0V9.69h1.38V8.31ZM2.77,11.08v1.38H4.15V11.08Zm2.77,0v1.38H6.92V11.08Zm2.77,0v1.38H9.69V11.08Zm2.77,0v1.38h1.38V11.08Zm2.77,0v1.38h1.38V11.08ZM2.77,13.85v1.38H4.15V13.85Zm2.77,0v1.38H6.92V13.85Zm2.77,0v1.38H9.69V13.85Z"/>
</svg>
